<?xml version="1.0" standalone="no"?>
<!DOCTYPE svg PUBLIC "-//W3C//DTD SVG 20010904//EN"
 "http://www.w3.org/TR/2001/REC-SVG-20010904/DTD/svg10.dtd">
<svg version="1.0" xmlns="http://www.w3.org/2000/svg"
 width="284.000000pt" height="177.000000pt" viewBox="0 0 284.000000 177.000000"
 preserveAspectRatio="xMidYMid meet">

<g transform="translate(0.000000,177.000000) scale(0.100000,-0.100000)"
fill="#000000" stroke="none">
<path d="M1328 1334 c-36 -19 -35 -43 1 -78 30 -29 51 -28 51 3 0 9 5 22 11
28 6 6 9 21 7 34 -4 29 -32 35 -70 13z"/>
<path d="M1385 1190 c-3 -5 -32 -10 -64 -10 -57 0 -59 -1 -64 -30 -4 -16 -13
-30 -20 -30 -18 0 -27 -43 -27 -125 0 -72 -2 -70 112 -81 l68 -7 6 31 c3 17
17 41 30 53 13 12 24 28 24 36 0 19 -9 16 -31 -9 -18 -23 -18 -23 -19 54 0 42
-3 83 -6 92 -4 11 -1 16 11 16 9 0 13 5 10 10 -3 6 -10 10 -15 10 -5 0 -12 -4
-15 -10z"/>
<path d="M1420 868 c-14 -5 -50 -8 -80 -5 l-56 5 4 -64 c3 -36 -3 -106 -13
-159 -20 -113 -25 -249 -9 -265 6 -6 29 -10 50 -8 39 4 39 4 12 15 -25 11 -26
14 -17 55 10 43 65 239 75 268 7 20 51 -30 60 -68 13 -59 67 -223 75 -228 5
-3 26 -2 46 2 l38 7 -27 9 c-22 8 -28 16 -28 38 0 88 -69 375 -97 400 -4 5
-19 3 -33 -2z"/>
<path d="M1683 524 c-11 -21 -18 -45 -15 -53 2 -8 0 -11 -6 -7 -9 6 -42 -50
-42 -73 0 -7 33 -11 95 -11 l95 0 -15 36 c-8 20 -15 38 -15 40 0 2 -7 4 -16 4
-9 0 -25 21 -38 51 l-23 52 -20 -39z m7 -104 c0 -5 -5 -10 -11 -10 -5 0 -7 5
-4 10 3 6 8 10 11 10 2 0 4 -4 4 -10z"/>
<path d="M710 535 c-11 -13 -10 -14 4 -9 9 3 16 10 16 15 0 13 -6 11 -20 -6z"/>
<path d="M467 489 c7 -7 15 -10 18 -7 3 3 -2 9 -12 12 -14 6 -15 5 -6 -5z"/>
<path d="M646 492 c-3 -5 1 -9 9 -9 8 0 12 4 9 9 -3 4 -7 8 -9 8 -2 0 -6 -4
-9 -8z"/>
<path d="M600 480 c-9 -6 -10 -10 -3 -10 6 0 15 5 18 10 8 12 4 12 -15 0z"/>
<path d="M760 478 c0 -9 7 -19 16 -22 15 -6 15 -4 3 11 -7 10 -15 20 -16 22
-2 2 -3 -3 -3 -11z"/>
<path d="M370 465 c-7 -9 -11 -17 -9 -20 3 -2 10 5 17 15 14 24 10 26 -8 5z"/>
<path d="M291 444 c0 -11 3 -14 6 -6 3 7 2 16 -1 19 -3 4 -6 -2 -5 -13z"/>
<path d="M710 430 c-13 -8 -12 -10 3 -10 9 0 17 5 17 10 0 12 -1 12 -20 0z"/>
<path d="M2086 373 c-6 -14 -5 -15 5 -6 7 7 10 15 7 18 -3 3 -9 -2 -12 -12z"/>
<path d="M250 368 c0 -7 5 -20 10 -28 8 -11 9 -9 8 13 -2 26 -18 40 -18 15z"/>
<path d="M1976 345 c-3 -8 -1 -15 4 -15 6 0 10 7 10 15 0 8 -2 15 -4 15 -2 0
-6 -7 -10 -15z"/>
<path d="M525 319 c-4 -6 -5 -12 -2 -15 2 -3 7 2 10 11 7 17 1 20 -8 4z"/>
<path d="M280 305 c0 -5 5 -17 10 -25 9 -13 11 -13 20 0 5 8 10 20 10 25 0 6
-5 3 -10 -5 -9 -13 -11 -13 -20 0 -5 8 -10 11 -10 5z"/>
<path d="M2485 290 c3 -5 11 -10 16 -10 6 0 7 5 4 10 -3 6 -11 10 -16 10 -6 0
-7 -4 -4 -10z"/>
<path d="M606 271 c-4 -5 3 -7 14 -4 23 6 26 13 6 13 -8 0 -17 -4 -20 -9z"/>
<path d="M2013 273 c9 -2 23 -2 30 0 6 3 -1 5 -18 5 -16 0 -22 -2 -12 -5z"/>
<path d="M2070 260 c20 -13 33 -13 25 0 -3 6 -14 10 -23 10 -15 0 -15 -2 -2
-10z"/>
<path d="M370 220 c-21 -7 -12 -15 13 -11 4 0 7 -4 7 -10 0 -6 9 -8 23 -4 36
12 40 22 6 17 -22 -3 -30 -1 -25 7 4 6 6 11 4 10 -2 -1 -14 -5 -28 -9z"/>
<path d="M625 200 c3 -5 8 -10 11 -10 2 0 4 5 4 10 0 6 -5 10 -11 10 -5 0 -7
-4 -4 -10z"/>
</g>
</svg>
