<?xml version="1.0" standalone="no"?>
<!DOCTYPE svg PUBLIC "-//W3C//DTD SVG 20010904//EN"
 "http://www.w3.org/TR/2001/REC-SVG-20010904/DTD/svg10.dtd">
<svg version="1.0" xmlns="http://www.w3.org/2000/svg"
 width="256.000000pt" height="256.000000pt" viewBox="0 0 256.000000 256.000000"
 preserveAspectRatio="xMidYMid meet">

<g transform="translate(0.000000,256.000000) scale(0.100000,-0.100000)"
fill="#000000" stroke="none">
<path d="M1988 2286 c-46 -34 -42 -107 8 -161 14 -15 23 -30 20 -32 -3 -3 -48
1 -101 9 -110 17 -135 11 -149 -39 -6 -19 -18 -34 -31 -37 -32 -8 -76 -60 -86
-102 -23 -101 0 -308 44 -394 28 -54 83 -88 155 -97 47 -5 50 -8 55 -37 6 -37
-9 -212 -20 -229 -18 -30 -408 -525 -432 -548 -33 -32 -39 -59 -12 -52 10 3
21 12 24 21 4 16 360 477 394 512 13 13 14 12 9 -10 -4 -14 -29 -70 -56 -125
-28 -55 -59 -136 -69 -180 -23 -92 -51 -247 -51 -281 0 -12 -16 -44 -36 -70
-34 -45 -35 -48 -18 -61 10 -7 24 -13 31 -13 8 0 27 -14 42 -31 20 -21 41 -32
70 -36 48 -7 52 4 17 50 -13 18 -31 47 -40 65 l-17 33 123 232 123 232 2 -60
c4 -101 33 -272 62 -363 25 -82 27 -108 10 -172 -3 -13 15 -15 114 -18 132 -3
145 6 66 45 -24 12 -57 32 -73 45 l-28 24 16 134 c45 386 86 820 86 920 l0 75
81 17 c45 9 103 28 129 42 l48 25 6 -22 c3 -12 6 -261 6 -553 0 -399 -3 -533
-12 -542 -9 -9 -9 -12 0 -12 7 0 12 -7 12 -15 0 -8 5 -15 10 -15 6 0 10 8 10
18 0 9 0 260 0 558 0 323 4 561 10 590 11 57 1 119 -20 119 -8 0 -16 -9 -18
-20 -2 -11 -11 -30 -20 -43 -16 -21 -29 -23 -124 -29 -122 -7 -111 -16 -128
107 -17 121 -28 148 -79 200 -41 44 -47 54 -43 85 2 20 10 35 17 35 17 0 25
23 25 75 0 26 6 47 15 55 30 25 17 48 -40 69 -63 24 -112 26 -137 7z"/>
<path d="M802 2228 c-20 -20 -14 -75 11 -95 15 -12 21 -27 19 -45 -2 -15 4
-41 13 -58 l16 -32 -58 8 c-86 12 -105 9 -130 -21 -26 -29 -29 -71 -8 -98 9
-13 11 -27 5 -45 -12 -36 -30 -261 -30 -372 0 -98 -4 -93 75 -105 l40 -6 3
-104 2 -103 -347 -248 c-192 -136 -355 -247 -363 -248 -8 -1 -21 -12 -27 -25
-17 -31 -16 -33 5 -23 9 5 22 7 29 5 6 -2 13 3 15 11 3 15 671 496 689 496 5
0 9 -10 9 -22 0 -20 32 -171 55 -259 5 -21 -2 -35 -40 -80 -60 -69 -68 -85
-111 -221 -27 -81 -45 -121 -65 -141 -16 -15 -29 -31 -29 -36 0 -4 15 -16 33
-26 18 -10 38 -27 43 -39 9 -21 69 -45 81 -32 4 4 0 19 -9 34 -8 15 -21 44
-27 64 -12 37 -12 39 55 135 38 54 92 128 121 164 29 37 64 84 78 104 l25 38
0 -28 c0 -32 -196 -376 -212 -372 -6 1 -11 -10 -12 -25 -1 -16 -1 -28 0 -28
13 0 50 28 47 36 -2 6 37 80 87 165 51 86 90 144 90 132 0 -36 66 -219 102
-280 18 -32 32 -60 32 -63 -1 -3 -5 -22 -8 -42 l-7 -38 96 0 c59 0 95 4 93 10
-1 5 -28 24 -58 42 -62 38 -71 54 -95 196 -19 108 -19 182 1 351 l16 136 65
115 c94 163 144 240 159 240 6 0 14 15 16 33 3 17 8 40 13 50 11 25 -21 22
-35 -4 -10 -17 -14 -18 -27 -7 -34 28 -133 189 -183 298 -62 135 -72 148 -116
156 -31 6 -34 10 -34 40 0 19 5 34 11 34 14 0 36 55 44 113 9 56 -3 79 -64
121 -28 20 -53 29 -75 28 -19 -1 -39 5 -46 13 -15 18 -61 20 -78 3z m432 -753
l107 -105 -27 -48 c-110 -199 -159 -276 -161 -252 -2 14 -7 126 -12 250 -5
124 -13 233 -16 243 -4 9 -5 17 -3 17 3 0 53 -47 112 -105z"/>
</g>
</svg>
